<svg width="96" height="96" xmlns="http://www.w3.org/2000/svg" xmlns:xlink="http://www.w3.org/1999/xlink" xml:space="preserve" overflow="hidden"><g transform="translate(-592 -312)"><path d="M660.3 395.2 663 352.6 665.8 389.7 660.3 395.2ZM654.1 398 614.1 398 617.6 342 622 342 622 350C622 351.1 622.9 352 624 352 625.1 352 626 351.1 626 350L626 342 646 342 646 350C646 351.1 646.9 352 648 352 649.1 352 650 351.1 650 350L650 342 657.6 342 654.1 398ZM626 332C626 327.4 629.1 323.6 633.3 322.4 631.8 324.6 631 327.2 631 330L631 336 626 336 626 332ZM638.6 322.3C642.9 323.4 646 327.3 646 332L646 336 635 336 635 330C635 326.9 636.4 324.2 638.6 322.3ZM645 320C650.5 320 655 324.5 655 330L655 336 650 336 650 332C650 327 647.4 322.6 643.4 320.1 643.9 320.1 644.5 320 645 320ZM668 339.8C667.9 337.7 666.1 336 664 336L659.7 336C661.7 336 663.4 337.5 663.7 339.4 663.4 337.5 661.8 336 659.7 336L659 336 659 330C659 322.3 652.7 316 645 316 642.3 316 639.8 316.8 637.7 318.1 637.1 318 636.6 318 636 318 628.3 318 622 324.3 622 332L622 336 615.8 336C613.7 336 611.9 337.6 611.8 339.8L608.1 399.8C608 402.1 609.8 404 612.1 404L656.1 404 658.4 404C659.5 404 660.6 403.5 661.3 402.7L670.8 393.3C671.6 392.5 672.1 391.3 672 390.2L668 339.8Z"/></g></svg>