<svg width="96" height="96" xmlns="http://www.w3.org/2000/svg" xmlns:xlink="http://www.w3.org/1999/xlink" xml:space="preserve" overflow="hidden"><g transform="translate(-442 -213)"><path d="M473 244 462 244 462 237 473 237 473 244ZM488 237 488 244 477 244 477 237 488 237ZM503 237 503 244 492 244 492 237 503 237ZM518 237 518 244 507 244 507 237 518 237ZM518 255 507 255 507 248 518 248 518 255ZM518 263.5 507 264.5 507 259 518 259 518 263.5ZM473 259 473 267.5 462 268.5 462 259 473 259ZM473 255 462 255 462 248 473 248 473 255ZM488 255 477 255 477 248 488 248 488 255ZM492 255 492 248 503 248 503 255 492 255ZM488 266.2 477 267.2 477 259 488 259 488 266.2ZM492 259 503 259 503 264.8 492 265.8 492 259ZM524 269 524 231 462 231 462 230C462 225 458 221 453 221 451.3 221 450 222.3 450 224 450 225.7 451.3 227 453 227 454.7 227 456 228.3 456 230L456 280C456 285 460 289 465 289L468 289 512 289 521 289C522.7 289 524 287.7 524 286 524 284.3 522.7 283 521 283L465 283C463.3 283 462 281.7 462 280L462 274.5 524 269Z" fill="#FFFFFF"/><path d="M474 295C474 298.314 471.314 301 468 301 464.686 301 462 298.314 462 295 462 291.686 464.686 289 468 289 471.314 289 474 291.686 474 295Z" fill="#FFFFFF"/><path d="M518 295C518 298.314 515.314 301 512 301 508.686 301 506 298.314 506 295 506 291.686 508.686 289 512 289 515.314 289 518 291.686 518 295Z" fill="#FFFFFF"/></g></svg>